<?xml version="1.0" encoding="UTF-8"?>
<svg xmlns="http://www.w3.org/2000/svg" viewBox="-84 -72 600 648" width="760" height="821" font-family="'IBM Plex Mono', monospace">
  <title>組子（麻の葉）基本設計図 — 正三角格子（歪0）＋周枠 / L=97.5 h=84.44 / 全壁厚12 枠20 / 開口≈23%</title>
  <defs>
    <marker id="ar" viewBox="0 0 10 10" refX="9" refY="5" markerWidth="7" markerHeight="7" orient="auto-start-reverse"><path d="M0,0 L10,5 L0,10 z" fill="#1b1a17"/></marker>
    <marker id="ari" viewBox="0 0 10 10" refX="1" refY="5" markerWidth="7" markerHeight="7" orient="auto-start-reverse"><path d="M10,0 L0,5 L10,10 z" fill="#1b1a17"/></marker>
    <clipPath id="fld"><rect x="20" y="20" width="350" height="350"/></clipPath>
  </defs>

  <!-- 周枠（solid band）を淡色で示す -->
  <path d="M0,0 H390 V390 H0 Z M20,20 V370 H370 V20 Z" fill="#ece8de" fill-rule="evenodd" stroke="none"/>

  <!-- ===== 幾何（中心線・周枠内にクリップ）===== -->
  <g clip-path="url(#fld)" fill="none" stroke-linecap="round">
    <g stroke="#1b1a17" stroke-width="1.4" opacity="0.85">
        <line x1="-536.250" y1="-227.187" x2="-487.500" y2="-142.750"/>
        <line x1="-536.250" y1="-227.187" x2="-438.750" y2="-227.187"/>
        <line x1="-487.500" y1="-142.750" x2="-438.750" y2="-227.187"/>
        <line x1="-487.500" y1="-142.750" x2="-438.750" y2="-58.312"/>
        <line x1="-487.500" y1="-142.750" x2="-390.000" y2="-142.750"/>
        <line x1="-438.750" y1="-227.187" x2="-390.000" y2="-142.750"/>
        <line x1="-438.750" y1="-227.187" x2="-341.250" y2="-227.187"/>
        <line x1="-438.750" y1="-58.312" x2="-390.000" y2="-142.750"/>
        <line x1="-438.750" y1="-58.312" x2="-390.000" y2="26.125"/>
        <line x1="-438.750" y1="-58.312" x2="-341.250" y2="-58.312"/>
        <line x1="-390.000" y1="-142.750" x2="-341.250" y2="-227.187"/>
        <line x1="-390.000" y1="-142.750" x2="-341.250" y2="-58.312"/>
        <line x1="-390.000" y1="-142.750" x2="-292.500" y2="-142.750"/>
        <line x1="-390.000" y1="26.125" x2="-341.250" y2="-58.312"/>
        <line x1="-390.000" y1="26.125" x2="-341.250" y2="110.563"/>
        <line x1="-390.000" y1="26.125" x2="-292.500" y2="26.125"/>
        <line x1="-341.250" y1="-227.187" x2="-292.500" y2="-142.750"/>
        <line x1="-341.250" y1="-227.187" x2="-243.750" y2="-227.187"/>
        <line x1="-341.250" y1="-58.312" x2="-292.500" y2="-142.750"/>
        <line x1="-341.250" y1="-58.312" x2="-292.500" y2="26.125"/>
        <line x1="-341.250" y1="-58.312" x2="-243.750" y2="-58.312"/>
        <line x1="-341.250" y1="110.563" x2="-292.500" y2="26.125"/>
        <line x1="-341.250" y1="110.563" x2="-292.500" y2="195.000"/>
        <line x1="-341.250" y1="110.563" x2="-243.750" y2="110.563"/>
        <line x1="-292.500" y1="-142.750" x2="-243.750" y2="-227.187"/>
        <line x1="-292.500" y1="-142.750" x2="-243.750" y2="-58.312"/>
        <line x1="-292.500" y1="-142.750" x2="-195.000" y2="-142.750"/>
        <line x1="-292.500" y1="26.125" x2="-243.750" y2="-58.312"/>
        <line x1="-292.500" y1="26.125" x2="-243.750" y2="110.563"/>
        <line x1="-292.500" y1="26.125" x2="-195.000" y2="26.125"/>
        <line x1="-292.500" y1="195.000" x2="-243.750" y2="110.563"/>
        <line x1="-292.500" y1="195.000" x2="-243.750" y2="279.437"/>
        <line x1="-292.500" y1="195.000" x2="-195.000" y2="195.000"/>
        <line x1="-243.750" y1="-227.187" x2="-195.000" y2="-142.750"/>
        <line x1="-243.750" y1="-227.187" x2="-146.250" y2="-227.187"/>
        <line x1="-243.750" y1="-58.312" x2="-195.000" y2="-142.750"/>
        <line x1="-243.750" y1="-58.312" x2="-195.000" y2="26.125"/>
        <line x1="-243.750" y1="-58.312" x2="-146.250" y2="-58.312"/>
        <line x1="-243.750" y1="110.563" x2="-195.000" y2="26.125"/>
        <line x1="-243.750" y1="110.563" x2="-195.000" y2="195.000"/>
        <line x1="-243.750" y1="110.563" x2="-146.250" y2="110.563"/>
        <line x1="-243.750" y1="279.437" x2="-195.000" y2="195.000"/>
        <line x1="-243.750" y1="279.437" x2="-195.000" y2="363.875"/>
        <line x1="-243.750" y1="279.437" x2="-146.250" y2="279.437"/>
        <line x1="-195.000" y1="-142.750" x2="-146.250" y2="-227.187"/>
        <line x1="-195.000" y1="-142.750" x2="-146.250" y2="-58.312"/>
        <line x1="-195.000" y1="-142.750" x2="-97.500" y2="-142.750"/>
        <line x1="-195.000" y1="26.125" x2="-146.250" y2="-58.312"/>
        <line x1="-195.000" y1="26.125" x2="-146.250" y2="110.563"/>
        <line x1="-195.000" y1="26.125" x2="-97.500" y2="26.125"/>
        <line x1="-195.000" y1="195.000" x2="-146.250" y2="110.563"/>
        <line x1="-195.000" y1="195.000" x2="-146.250" y2="279.437"/>
        <line x1="-195.000" y1="195.000" x2="-97.500" y2="195.000"/>
        <line x1="-195.000" y1="363.875" x2="-146.250" y2="279.437"/>
        <line x1="-195.000" y1="363.875" x2="-146.250" y2="448.312"/>
        <line x1="-195.000" y1="363.875" x2="-97.500" y2="363.875"/>
        <line x1="-146.250" y1="-227.187" x2="-97.500" y2="-142.750"/>
        <line x1="-146.250" y1="-227.187" x2="-48.750" y2="-227.187"/>
        <line x1="-146.250" y1="-58.312" x2="-97.500" y2="-142.750"/>
        <line x1="-146.250" y1="-58.312" x2="-97.500" y2="26.125"/>
        <line x1="-146.250" y1="-58.312" x2="-48.750" y2="-58.312"/>
        <line x1="-146.250" y1="110.563" x2="-97.500" y2="26.125"/>
        <line x1="-146.250" y1="110.563" x2="-97.500" y2="195.000"/>
        <line x1="-146.250" y1="110.563" x2="-48.750" y2="110.563"/>
        <line x1="-146.250" y1="279.437" x2="-97.500" y2="195.000"/>
        <line x1="-146.250" y1="279.437" x2="-97.500" y2="363.875"/>
        <line x1="-146.250" y1="279.437" x2="-48.750" y2="279.437"/>
        <line x1="-146.250" y1="448.312" x2="-97.500" y2="363.875"/>
        <line x1="-146.250" y1="448.312" x2="-97.500" y2="532.750"/>
        <line x1="-146.250" y1="448.312" x2="-48.750" y2="448.312"/>
        <line x1="-97.500" y1="-142.750" x2="-48.750" y2="-227.187"/>
        <line x1="-97.500" y1="-142.750" x2="-48.750" y2="-58.312"/>
        <line x1="-97.500" y1="-142.750" x2="0.000" y2="-142.750"/>
        <line x1="-97.500" y1="26.125" x2="-48.750" y2="-58.312"/>
        <line x1="-97.500" y1="26.125" x2="-48.750" y2="110.563"/>
        <line x1="-97.500" y1="26.125" x2="0.000" y2="26.125"/>
        <line x1="-97.500" y1="195.000" x2="-48.750" y2="110.563"/>
        <line x1="-97.500" y1="195.000" x2="-48.750" y2="279.437"/>
        <line x1="-97.500" y1="195.000" x2="0.000" y2="195.000"/>
        <line x1="-97.500" y1="363.875" x2="-48.750" y2="279.437"/>
        <line x1="-97.500" y1="363.875" x2="-48.750" y2="448.312"/>
        <line x1="-97.500" y1="363.875" x2="0.000" y2="363.875"/>
        <line x1="-97.500" y1="532.750" x2="-48.750" y2="448.312"/>
        <line x1="-97.500" y1="532.750" x2="-48.750" y2="617.187"/>
        <line x1="-97.500" y1="532.750" x2="0.000" y2="532.750"/>
        <line x1="-48.750" y1="-227.187" x2="0.000" y2="-142.750"/>
        <line x1="-48.750" y1="-227.187" x2="48.750" y2="-227.187"/>
        <line x1="-48.750" y1="-58.312" x2="0.000" y2="-142.750"/>
        <line x1="-48.750" y1="-58.312" x2="0.000" y2="26.125"/>
        <line x1="-48.750" y1="-58.312" x2="48.750" y2="-58.312"/>
        <line x1="-48.750" y1="110.563" x2="0.000" y2="26.125"/>
        <line x1="-48.750" y1="110.563" x2="0.000" y2="195.000"/>
        <line x1="-48.750" y1="110.563" x2="48.750" y2="110.563"/>
        <line x1="-48.750" y1="279.437" x2="0.000" y2="195.000"/>
        <line x1="-48.750" y1="279.437" x2="0.000" y2="363.875"/>
        <line x1="-48.750" y1="279.437" x2="48.750" y2="279.437"/>
        <line x1="-48.750" y1="448.312" x2="0.000" y2="363.875"/>
        <line x1="-48.750" y1="448.312" x2="0.000" y2="532.750"/>
        <line x1="-48.750" y1="448.312" x2="48.750" y2="448.312"/>
        <line x1="-48.750" y1="617.187" x2="0.000" y2="532.750"/>
        <line x1="-48.750" y1="617.187" x2="48.750" y2="617.187"/>
        <line x1="0.000" y1="-142.750" x2="48.750" y2="-227.187"/>
        <line x1="0.000" y1="-142.750" x2="48.750" y2="-58.312"/>
        <line x1="0.000" y1="-142.750" x2="97.500" y2="-142.750"/>
        <line x1="0.000" y1="26.125" x2="48.750" y2="-58.312"/>
        <line x1="0.000" y1="26.125" x2="48.750" y2="110.563"/>
        <line x1="0.000" y1="26.125" x2="97.500" y2="26.125"/>
        <line x1="0.000" y1="195.000" x2="48.750" y2="110.563"/>
        <line x1="0.000" y1="195.000" x2="48.750" y2="279.437"/>
        <line x1="0.000" y1="195.000" x2="97.500" y2="195.000"/>
        <line x1="0.000" y1="363.875" x2="48.750" y2="279.437"/>
        <line x1="0.000" y1="363.875" x2="48.750" y2="448.312"/>
        <line x1="0.000" y1="363.875" x2="97.500" y2="363.875"/>
        <line x1="0.000" y1="532.750" x2="48.750" y2="448.312"/>
        <line x1="0.000" y1="532.750" x2="48.750" y2="617.187"/>
        <line x1="0.000" y1="532.750" x2="97.500" y2="532.750"/>
        <line x1="48.750" y1="-227.187" x2="97.500" y2="-142.750"/>
        <line x1="48.750" y1="-227.187" x2="146.250" y2="-227.187"/>
        <line x1="48.750" y1="-58.312" x2="97.500" y2="-142.750"/>
        <line x1="48.750" y1="-58.312" x2="97.500" y2="26.125"/>
        <line x1="48.750" y1="-58.312" x2="146.250" y2="-58.312"/>
        <line x1="48.750" y1="110.563" x2="97.500" y2="26.125"/>
        <line x1="48.750" y1="110.563" x2="97.500" y2="195.000"/>
        <line x1="48.750" y1="110.563" x2="146.250" y2="110.563"/>
        <line x1="48.750" y1="279.437" x2="97.500" y2="195.000"/>
        <line x1="48.750" y1="279.437" x2="97.500" y2="363.875"/>
        <line x1="48.750" y1="279.437" x2="146.250" y2="279.437"/>
        <line x1="48.750" y1="448.312" x2="97.500" y2="363.875"/>
        <line x1="48.750" y1="448.312" x2="97.500" y2="532.750"/>
        <line x1="48.750" y1="448.312" x2="146.250" y2="448.312"/>
        <line x1="48.750" y1="617.187" x2="97.500" y2="532.750"/>
        <line x1="48.750" y1="617.187" x2="146.250" y2="617.187"/>
        <line x1="97.500" y1="-142.750" x2="146.250" y2="-227.187"/>
        <line x1="97.500" y1="-142.750" x2="146.250" y2="-58.312"/>
        <line x1="97.500" y1="-142.750" x2="195.000" y2="-142.750"/>
        <line x1="97.500" y1="26.125" x2="146.250" y2="-58.312"/>
        <line x1="97.500" y1="26.125" x2="146.250" y2="110.563"/>
        <line x1="97.500" y1="26.125" x2="195.000" y2="26.125"/>
        <line x1="97.500" y1="195.000" x2="146.250" y2="110.563"/>
        <line x1="97.500" y1="195.000" x2="146.250" y2="279.437"/>
        <line x1="97.500" y1="195.000" x2="195.000" y2="195.000"/>
        <line x1="97.500" y1="363.875" x2="146.250" y2="279.437"/>
        <line x1="97.500" y1="363.875" x2="146.250" y2="448.312"/>
        <line x1="97.500" y1="363.875" x2="195.000" y2="363.875"/>
        <line x1="97.500" y1="532.750" x2="146.250" y2="448.312"/>
        <line x1="97.500" y1="532.750" x2="146.250" y2="617.187"/>
        <line x1="97.500" y1="532.750" x2="195.000" y2="532.750"/>
        <line x1="146.250" y1="-227.187" x2="195.000" y2="-142.750"/>
        <line x1="146.250" y1="-227.187" x2="243.750" y2="-227.187"/>
        <line x1="146.250" y1="-58.312" x2="195.000" y2="-142.750"/>
        <line x1="146.250" y1="-58.312" x2="195.000" y2="26.125"/>
        <line x1="146.250" y1="-58.312" x2="243.750" y2="-58.312"/>
        <line x1="146.250" y1="110.563" x2="195.000" y2="26.125"/>
        <line x1="146.250" y1="110.563" x2="195.000" y2="195.000"/>
        <line x1="146.250" y1="110.563" x2="243.750" y2="110.563"/>
        <line x1="146.250" y1="279.437" x2="195.000" y2="195.000"/>
        <line x1="146.250" y1="279.437" x2="195.000" y2="363.875"/>
        <line x1="146.250" y1="279.437" x2="243.750" y2="279.437"/>
        <line x1="146.250" y1="448.312" x2="195.000" y2="363.875"/>
        <line x1="146.250" y1="448.312" x2="195.000" y2="532.750"/>
        <line x1="146.250" y1="448.312" x2="243.750" y2="448.312"/>
        <line x1="146.250" y1="617.187" x2="195.000" y2="532.750"/>
        <line x1="146.250" y1="617.187" x2="243.750" y2="617.187"/>
        <line x1="195.000" y1="-142.750" x2="243.750" y2="-227.187"/>
        <line x1="195.000" y1="-142.750" x2="243.750" y2="-58.312"/>
        <line x1="195.000" y1="-142.750" x2="292.500" y2="-142.750"/>
        <line x1="195.000" y1="26.125" x2="243.750" y2="-58.312"/>
        <line x1="195.000" y1="26.125" x2="243.750" y2="110.563"/>
        <line x1="195.000" y1="26.125" x2="292.500" y2="26.125"/>
        <line x1="195.000" y1="195.000" x2="243.750" y2="110.563"/>
        <line x1="195.000" y1="195.000" x2="243.750" y2="279.437"/>
        <line x1="195.000" y1="195.000" x2="292.500" y2="195.000"/>
        <line x1="195.000" y1="363.875" x2="243.750" y2="279.437"/>
        <line x1="195.000" y1="363.875" x2="243.750" y2="448.312"/>
        <line x1="195.000" y1="363.875" x2="292.500" y2="363.875"/>
        <line x1="195.000" y1="532.750" x2="243.750" y2="448.312"/>
        <line x1="195.000" y1="532.750" x2="243.750" y2="617.187"/>
        <line x1="195.000" y1="532.750" x2="292.500" y2="532.750"/>
        <line x1="243.750" y1="-227.187" x2="292.500" y2="-142.750"/>
        <line x1="243.750" y1="-227.187" x2="341.250" y2="-227.187"/>
        <line x1="243.750" y1="-58.312" x2="292.500" y2="-142.750"/>
        <line x1="243.750" y1="-58.312" x2="292.500" y2="26.125"/>
        <line x1="243.750" y1="-58.312" x2="341.250" y2="-58.312"/>
        <line x1="243.750" y1="110.563" x2="292.500" y2="26.125"/>
        <line x1="243.750" y1="110.563" x2="292.500" y2="195.000"/>
        <line x1="243.750" y1="110.563" x2="341.250" y2="110.563"/>
        <line x1="243.750" y1="279.437" x2="292.500" y2="195.000"/>
        <line x1="243.750" y1="279.437" x2="292.500" y2="363.875"/>
        <line x1="243.750" y1="279.437" x2="341.250" y2="279.437"/>
        <line x1="243.750" y1="448.312" x2="292.500" y2="363.875"/>
        <line x1="243.750" y1="448.312" x2="292.500" y2="532.750"/>
        <line x1="243.750" y1="448.312" x2="341.250" y2="448.312"/>
        <line x1="243.750" y1="617.187" x2="292.500" y2="532.750"/>
        <line x1="243.750" y1="617.187" x2="341.250" y2="617.187"/>
        <line x1="292.500" y1="-142.750" x2="341.250" y2="-227.187"/>
        <line x1="292.500" y1="-142.750" x2="341.250" y2="-58.312"/>
        <line x1="292.500" y1="-142.750" x2="390.000" y2="-142.750"/>
        <line x1="292.500" y1="26.125" x2="341.250" y2="-58.312"/>
        <line x1="292.500" y1="26.125" x2="341.250" y2="110.563"/>
        <line x1="292.500" y1="26.125" x2="390.000" y2="26.125"/>
        <line x1="292.500" y1="195.000" x2="341.250" y2="110.563"/>
        <line x1="292.500" y1="195.000" x2="341.250" y2="279.437"/>
        <line x1="292.500" y1="195.000" x2="390.000" y2="195.000"/>
        <line x1="292.500" y1="363.875" x2="341.250" y2="279.437"/>
        <line x1="292.500" y1="363.875" x2="341.250" y2="448.312"/>
        <line x1="292.500" y1="363.875" x2="390.000" y2="363.875"/>
        <line x1="292.500" y1="532.750" x2="341.250" y2="448.312"/>
        <line x1="292.500" y1="532.750" x2="341.250" y2="617.187"/>
        <line x1="292.500" y1="532.750" x2="390.000" y2="532.750"/>
        <line x1="341.250" y1="-227.187" x2="390.000" y2="-142.750"/>
        <line x1="341.250" y1="-227.187" x2="438.750" y2="-227.187"/>
        <line x1="341.250" y1="-58.312" x2="390.000" y2="-142.750"/>
        <line x1="341.250" y1="-58.312" x2="390.000" y2="26.125"/>
        <line x1="341.250" y1="-58.312" x2="438.750" y2="-58.312"/>
        <line x1="341.250" y1="110.563" x2="390.000" y2="26.125"/>
        <line x1="341.250" y1="110.563" x2="390.000" y2="195.000"/>
        <line x1="341.250" y1="110.563" x2="438.750" y2="110.563"/>
        <line x1="341.250" y1="279.437" x2="390.000" y2="195.000"/>
        <line x1="341.250" y1="279.437" x2="390.000" y2="363.875"/>
        <line x1="341.250" y1="279.437" x2="438.750" y2="279.437"/>
        <line x1="341.250" y1="448.312" x2="390.000" y2="363.875"/>
        <line x1="341.250" y1="448.312" x2="390.000" y2="532.750"/>
        <line x1="341.250" y1="448.312" x2="438.750" y2="448.312"/>
        <line x1="341.250" y1="617.187" x2="390.000" y2="532.750"/>
        <line x1="341.250" y1="617.187" x2="438.750" y2="617.187"/>
        <line x1="390.000" y1="-142.750" x2="438.750" y2="-227.187"/>
        <line x1="390.000" y1="-142.750" x2="438.750" y2="-58.312"/>
        <line x1="390.000" y1="-142.750" x2="487.500" y2="-142.750"/>
        <line x1="390.000" y1="26.125" x2="438.750" y2="-58.312"/>
        <line x1="390.000" y1="26.125" x2="438.750" y2="110.563"/>
        <line x1="390.000" y1="26.125" x2="487.500" y2="26.125"/>
        <line x1="390.000" y1="195.000" x2="438.750" y2="110.563"/>
        <line x1="390.000" y1="195.000" x2="438.750" y2="279.437"/>
        <line x1="390.000" y1="195.000" x2="487.500" y2="195.000"/>
        <line x1="390.000" y1="363.875" x2="438.750" y2="279.437"/>
        <line x1="390.000" y1="363.875" x2="438.750" y2="448.312"/>
        <line x1="390.000" y1="363.875" x2="487.500" y2="363.875"/>
        <line x1="390.000" y1="532.750" x2="438.750" y2="448.312"/>
        <line x1="390.000" y1="532.750" x2="438.750" y2="617.187"/>
        <line x1="390.000" y1="532.750" x2="487.500" y2="532.750"/>
        <line x1="438.750" y1="-227.187" x2="487.500" y2="-142.750"/>
        <line x1="438.750" y1="-58.312" x2="487.500" y2="-142.750"/>
        <line x1="438.750" y1="-58.312" x2="487.500" y2="26.125"/>
        <line x1="438.750" y1="-58.312" x2="536.250" y2="-58.312"/>
        <line x1="438.750" y1="110.563" x2="487.500" y2="26.125"/>
        <line x1="438.750" y1="110.563" x2="487.500" y2="195.000"/>
        <line x1="438.750" y1="110.563" x2="536.250" y2="110.563"/>
        <line x1="438.750" y1="279.437" x2="487.500" y2="195.000"/>
        <line x1="438.750" y1="279.437" x2="487.500" y2="363.875"/>
        <line x1="438.750" y1="279.437" x2="536.250" y2="279.437"/>
        <line x1="438.750" y1="448.312" x2="487.500" y2="363.875"/>
        <line x1="438.750" y1="448.312" x2="487.500" y2="532.750"/>
        <line x1="438.750" y1="448.312" x2="536.250" y2="448.312"/>
        <line x1="438.750" y1="617.187" x2="487.500" y2="532.750"/>
        <line x1="438.750" y1="617.187" x2="536.250" y2="617.187"/>
        <line x1="487.500" y1="-142.750" x2="536.250" y2="-58.312"/>
        <line x1="487.500" y1="26.125" x2="536.250" y2="-58.312"/>
        <line x1="487.500" y1="26.125" x2="536.250" y2="110.563"/>
        <line x1="487.500" y1="26.125" x2="585.000" y2="26.125"/>
        <line x1="487.500" y1="195.000" x2="536.250" y2="110.563"/>
        <line x1="487.500" y1="195.000" x2="536.250" y2="279.437"/>
        <line x1="487.500" y1="195.000" x2="585.000" y2="195.000"/>
        <line x1="487.500" y1="363.875" x2="536.250" y2="279.437"/>
        <line x1="487.500" y1="363.875" x2="536.250" y2="448.312"/>
        <line x1="487.500" y1="363.875" x2="585.000" y2="363.875"/>
        <line x1="487.500" y1="532.750" x2="536.250" y2="448.312"/>
        <line x1="487.500" y1="532.750" x2="536.250" y2="617.187"/>
        <line x1="487.500" y1="532.750" x2="585.000" y2="532.750"/>
        <line x1="536.250" y1="-58.312" x2="585.000" y2="26.125"/>
        <line x1="536.250" y1="110.563" x2="585.000" y2="26.125"/>
        <line x1="536.250" y1="110.563" x2="585.000" y2="195.000"/>
        <line x1="536.250" y1="110.563" x2="633.750" y2="110.563"/>
        <line x1="536.250" y1="279.437" x2="585.000" y2="195.000"/>
        <line x1="536.250" y1="279.437" x2="585.000" y2="363.875"/>
        <line x1="536.250" y1="279.437" x2="633.750" y2="279.437"/>
        <line x1="536.250" y1="448.312" x2="585.000" y2="363.875"/>
        <line x1="536.250" y1="448.312" x2="585.000" y2="532.750"/>
        <line x1="536.250" y1="448.312" x2="633.750" y2="448.312"/>
        <line x1="536.250" y1="617.187" x2="585.000" y2="532.750"/>
        <line x1="536.250" y1="617.187" x2="633.750" y2="617.187"/>
        <line x1="585.000" y1="26.125" x2="633.750" y2="110.563"/>
        <line x1="585.000" y1="195.000" x2="633.750" y2="110.563"/>
        <line x1="585.000" y1="195.000" x2="633.750" y2="279.437"/>
        <line x1="585.000" y1="195.000" x2="682.500" y2="195.000"/>
        <line x1="585.000" y1="363.875" x2="633.750" y2="279.437"/>
        <line x1="585.000" y1="363.875" x2="633.750" y2="448.312"/>
        <line x1="585.000" y1="363.875" x2="682.500" y2="363.875"/>
        <line x1="585.000" y1="532.750" x2="633.750" y2="448.312"/>
        <line x1="585.000" y1="532.750" x2="633.750" y2="617.187"/>
        <line x1="585.000" y1="532.750" x2="682.500" y2="532.750"/>
        <line x1="633.750" y1="110.563" x2="682.500" y2="195.000"/>
        <line x1="633.750" y1="279.437" x2="682.500" y2="195.000"/>
        <line x1="633.750" y1="279.437" x2="682.500" y2="363.875"/>
        <line x1="633.750" y1="279.437" x2="731.250" y2="279.437"/>
        <line x1="633.750" y1="448.312" x2="682.500" y2="363.875"/>
        <line x1="633.750" y1="448.312" x2="682.500" y2="532.750"/>
        <line x1="633.750" y1="448.312" x2="731.250" y2="448.312"/>
        <line x1="633.750" y1="617.187" x2="682.500" y2="532.750"/>
        <line x1="633.750" y1="617.187" x2="731.250" y2="617.187"/>
        <line x1="682.500" y1="195.000" x2="731.250" y2="279.437"/>
        <line x1="682.500" y1="363.875" x2="731.250" y2="279.437"/>
        <line x1="682.500" y1="363.875" x2="731.250" y2="448.312"/>
        <line x1="682.500" y1="363.875" x2="780.000" y2="363.875"/>
        <line x1="682.500" y1="532.750" x2="731.250" y2="448.312"/>
        <line x1="682.500" y1="532.750" x2="731.250" y2="617.187"/>
        <line x1="682.500" y1="532.750" x2="780.000" y2="532.750"/>
        <line x1="731.250" y1="279.437" x2="780.000" y2="363.875"/>
        <line x1="731.250" y1="448.312" x2="780.000" y2="363.875"/>
        <line x1="731.250" y1="448.312" x2="780.000" y2="532.750"/>
        <line x1="731.250" y1="448.312" x2="828.750" y2="448.312"/>
        <line x1="731.250" y1="617.187" x2="780.000" y2="532.750"/>
        <line x1="731.250" y1="617.187" x2="828.750" y2="617.187"/>
        <line x1="780.000" y1="363.875" x2="828.750" y2="448.312"/>
        <line x1="780.000" y1="532.750" x2="828.750" y2="448.312"/>
        <line x1="780.000" y1="532.750" x2="828.750" y2="617.187"/>
        <line x1="780.000" y1="532.750" x2="877.500" y2="532.750"/>
        <line x1="828.750" y1="448.312" x2="877.500" y2="532.750"/>
        <line x1="828.750" y1="617.187" x2="877.500" y2="532.750"/>
        <line x1="828.750" y1="617.187" x2="926.250" y2="617.187"/>
        <line x1="877.500" y1="532.750" x2="926.250" y2="617.187"/>
    </g>
    <g stroke="#9a958a" stroke-width="1.4" opacity="0.9">
        <line x1="-487.500" y1="-199.042" x2="-536.250" y2="-227.187"/>
        <line x1="-487.500" y1="-199.042" x2="-487.500" y2="-142.750"/>
        <line x1="-487.500" y1="-199.042" x2="-438.750" y2="-227.187"/>
        <line x1="-438.750" y1="-170.896" x2="-438.750" y2="-227.187"/>
        <line x1="-438.750" y1="-170.896" x2="-390.000" y2="-142.750"/>
        <line x1="-438.750" y1="-170.896" x2="-487.500" y2="-142.750"/>
        <line x1="-390.000" y1="-199.042" x2="-438.750" y2="-227.187"/>
        <line x1="-390.000" y1="-199.042" x2="-390.000" y2="-142.750"/>
        <line x1="-390.000" y1="-199.042" x2="-341.250" y2="-227.187"/>
        <line x1="-341.250" y1="-170.896" x2="-341.250" y2="-227.187"/>
        <line x1="-341.250" y1="-170.896" x2="-292.500" y2="-142.750"/>
        <line x1="-341.250" y1="-170.896" x2="-390.000" y2="-142.750"/>
        <line x1="-292.500" y1="-199.042" x2="-341.250" y2="-227.187"/>
        <line x1="-292.500" y1="-199.042" x2="-292.500" y2="-142.750"/>
        <line x1="-292.500" y1="-199.042" x2="-243.750" y2="-227.187"/>
        <line x1="-243.750" y1="-170.896" x2="-243.750" y2="-227.187"/>
        <line x1="-243.750" y1="-170.896" x2="-195.000" y2="-142.750"/>
        <line x1="-243.750" y1="-170.896" x2="-292.500" y2="-142.750"/>
        <line x1="-195.000" y1="-199.042" x2="-243.750" y2="-227.187"/>
        <line x1="-195.000" y1="-199.042" x2="-195.000" y2="-142.750"/>
        <line x1="-195.000" y1="-199.042" x2="-146.250" y2="-227.187"/>
        <line x1="-146.250" y1="-170.896" x2="-146.250" y2="-227.187"/>
        <line x1="-146.250" y1="-170.896" x2="-97.500" y2="-142.750"/>
        <line x1="-146.250" y1="-170.896" x2="-195.000" y2="-142.750"/>
        <line x1="-97.500" y1="-199.042" x2="-146.250" y2="-227.187"/>
        <line x1="-97.500" y1="-199.042" x2="-97.500" y2="-142.750"/>
        <line x1="-97.500" y1="-199.042" x2="-48.750" y2="-227.187"/>
        <line x1="-48.750" y1="-170.896" x2="-48.750" y2="-227.187"/>
        <line x1="-48.750" y1="-170.896" x2="0.000" y2="-142.750"/>
        <line x1="-48.750" y1="-170.896" x2="-97.500" y2="-142.750"/>
        <line x1="0.000" y1="-199.042" x2="-48.750" y2="-227.187"/>
        <line x1="0.000" y1="-199.042" x2="0.000" y2="-142.750"/>
        <line x1="0.000" y1="-199.042" x2="48.750" y2="-227.187"/>
        <line x1="48.750" y1="-170.896" x2="48.750" y2="-227.187"/>
        <line x1="48.750" y1="-170.896" x2="97.500" y2="-142.750"/>
        <line x1="48.750" y1="-170.896" x2="0.000" y2="-142.750"/>
        <line x1="97.500" y1="-199.042" x2="48.750" y2="-227.187"/>
        <line x1="97.500" y1="-199.042" x2="97.500" y2="-142.750"/>
        <line x1="97.500" y1="-199.042" x2="146.250" y2="-227.187"/>
        <line x1="146.250" y1="-170.896" x2="146.250" y2="-227.187"/>
        <line x1="146.250" y1="-170.896" x2="195.000" y2="-142.750"/>
        <line x1="146.250" y1="-170.896" x2="97.500" y2="-142.750"/>
        <line x1="195.000" y1="-199.042" x2="146.250" y2="-227.187"/>
        <line x1="195.000" y1="-199.042" x2="195.000" y2="-142.750"/>
        <line x1="195.000" y1="-199.042" x2="243.750" y2="-227.187"/>
        <line x1="243.750" y1="-170.896" x2="243.750" y2="-227.187"/>
        <line x1="243.750" y1="-170.896" x2="292.500" y2="-142.750"/>
        <line x1="243.750" y1="-170.896" x2="195.000" y2="-142.750"/>
        <line x1="292.500" y1="-199.042" x2="243.750" y2="-227.187"/>
        <line x1="292.500" y1="-199.042" x2="292.500" y2="-142.750"/>
        <line x1="292.500" y1="-199.042" x2="341.250" y2="-227.187"/>
        <line x1="341.250" y1="-170.896" x2="341.250" y2="-227.187"/>
        <line x1="341.250" y1="-170.896" x2="390.000" y2="-142.750"/>
        <line x1="341.250" y1="-170.896" x2="292.500" y2="-142.750"/>
        <line x1="390.000" y1="-199.042" x2="341.250" y2="-227.187"/>
        <line x1="390.000" y1="-199.042" x2="390.000" y2="-142.750"/>
        <line x1="390.000" y1="-199.042" x2="438.750" y2="-227.187"/>
        <line x1="438.750" y1="-170.896" x2="438.750" y2="-227.187"/>
        <line x1="438.750" y1="-170.896" x2="487.500" y2="-142.750"/>
        <line x1="438.750" y1="-170.896" x2="390.000" y2="-142.750"/>
        <line x1="-438.750" y1="-114.604" x2="-487.500" y2="-142.750"/>
        <line x1="-438.750" y1="-114.604" x2="-438.750" y2="-58.312"/>
        <line x1="-438.750" y1="-114.604" x2="-390.000" y2="-142.750"/>
        <line x1="-390.000" y1="-86.458" x2="-390.000" y2="-142.750"/>
        <line x1="-390.000" y1="-86.458" x2="-341.250" y2="-58.312"/>
        <line x1="-390.000" y1="-86.458" x2="-438.750" y2="-58.312"/>
        <line x1="-341.250" y1="-114.604" x2="-390.000" y2="-142.750"/>
        <line x1="-341.250" y1="-114.604" x2="-341.250" y2="-58.312"/>
        <line x1="-341.250" y1="-114.604" x2="-292.500" y2="-142.750"/>
        <line x1="-292.500" y1="-86.458" x2="-292.500" y2="-142.750"/>
        <line x1="-292.500" y1="-86.458" x2="-243.750" y2="-58.312"/>
        <line x1="-292.500" y1="-86.458" x2="-341.250" y2="-58.312"/>
        <line x1="-243.750" y1="-114.604" x2="-292.500" y2="-142.750"/>
        <line x1="-243.750" y1="-114.604" x2="-243.750" y2="-58.312"/>
        <line x1="-243.750" y1="-114.604" x2="-195.000" y2="-142.750"/>
        <line x1="-195.000" y1="-86.458" x2="-195.000" y2="-142.750"/>
        <line x1="-195.000" y1="-86.458" x2="-146.250" y2="-58.312"/>
        <line x1="-195.000" y1="-86.458" x2="-243.750" y2="-58.312"/>
        <line x1="-146.250" y1="-114.604" x2="-195.000" y2="-142.750"/>
        <line x1="-146.250" y1="-114.604" x2="-146.250" y2="-58.312"/>
        <line x1="-146.250" y1="-114.604" x2="-97.500" y2="-142.750"/>
        <line x1="-97.500" y1="-86.458" x2="-97.500" y2="-142.750"/>
        <line x1="-97.500" y1="-86.458" x2="-48.750" y2="-58.312"/>
        <line x1="-97.500" y1="-86.458" x2="-146.250" y2="-58.312"/>
        <line x1="-48.750" y1="-114.604" x2="-97.500" y2="-142.750"/>
        <line x1="-48.750" y1="-114.604" x2="-48.750" y2="-58.312"/>
        <line x1="-48.750" y1="-114.604" x2="0.000" y2="-142.750"/>
        <line x1="0.000" y1="-86.458" x2="0.000" y2="-142.750"/>
        <line x1="0.000" y1="-86.458" x2="48.750" y2="-58.312"/>
        <line x1="0.000" y1="-86.458" x2="-48.750" y2="-58.312"/>
        <line x1="48.750" y1="-114.604" x2="0.000" y2="-142.750"/>
        <line x1="48.750" y1="-114.604" x2="48.750" y2="-58.312"/>
        <line x1="48.750" y1="-114.604" x2="97.500" y2="-142.750"/>
        <line x1="97.500" y1="-86.458" x2="97.500" y2="-142.750"/>
        <line x1="97.500" y1="-86.458" x2="146.250" y2="-58.312"/>
        <line x1="97.500" y1="-86.458" x2="48.750" y2="-58.312"/>
        <line x1="146.250" y1="-114.604" x2="97.500" y2="-142.750"/>
        <line x1="146.250" y1="-114.604" x2="146.250" y2="-58.312"/>
        <line x1="146.250" y1="-114.604" x2="195.000" y2="-142.750"/>
        <line x1="195.000" y1="-86.458" x2="195.000" y2="-142.750"/>
        <line x1="195.000" y1="-86.458" x2="243.750" y2="-58.312"/>
        <line x1="195.000" y1="-86.458" x2="146.250" y2="-58.312"/>
        <line x1="243.750" y1="-114.604" x2="195.000" y2="-142.750"/>
        <line x1="243.750" y1="-114.604" x2="243.750" y2="-58.312"/>
        <line x1="243.750" y1="-114.604" x2="292.500" y2="-142.750"/>
        <line x1="292.500" y1="-86.458" x2="292.500" y2="-142.750"/>
        <line x1="292.500" y1="-86.458" x2="341.250" y2="-58.312"/>
        <line x1="292.500" y1="-86.458" x2="243.750" y2="-58.312"/>
        <line x1="341.250" y1="-114.604" x2="292.500" y2="-142.750"/>
        <line x1="341.250" y1="-114.604" x2="341.250" y2="-58.312"/>
        <line x1="341.250" y1="-114.604" x2="390.000" y2="-142.750"/>
        <line x1="390.000" y1="-86.458" x2="390.000" y2="-142.750"/>
        <line x1="390.000" y1="-86.458" x2="438.750" y2="-58.312"/>
        <line x1="390.000" y1="-86.458" x2="341.250" y2="-58.312"/>
        <line x1="438.750" y1="-114.604" x2="390.000" y2="-142.750"/>
        <line x1="438.750" y1="-114.604" x2="438.750" y2="-58.312"/>
        <line x1="438.750" y1="-114.604" x2="487.500" y2="-142.750"/>
        <line x1="487.500" y1="-86.458" x2="487.500" y2="-142.750"/>
        <line x1="487.500" y1="-86.458" x2="536.250" y2="-58.312"/>
        <line x1="487.500" y1="-86.458" x2="438.750" y2="-58.312"/>
        <line x1="-390.000" y1="-30.167" x2="-438.750" y2="-58.312"/>
        <line x1="-390.000" y1="-30.167" x2="-390.000" y2="26.125"/>
        <line x1="-390.000" y1="-30.167" x2="-341.250" y2="-58.312"/>
        <line x1="-341.250" y1="-2.021" x2="-341.250" y2="-58.312"/>
        <line x1="-341.250" y1="-2.021" x2="-292.500" y2="26.125"/>
        <line x1="-341.250" y1="-2.021" x2="-390.000" y2="26.125"/>
        <line x1="-292.500" y1="-30.167" x2="-341.250" y2="-58.312"/>
        <line x1="-292.500" y1="-30.167" x2="-292.500" y2="26.125"/>
        <line x1="-292.500" y1="-30.167" x2="-243.750" y2="-58.312"/>
        <line x1="-243.750" y1="-2.021" x2="-243.750" y2="-58.312"/>
        <line x1="-243.750" y1="-2.021" x2="-195.000" y2="26.125"/>
        <line x1="-243.750" y1="-2.021" x2="-292.500" y2="26.125"/>
        <line x1="-195.000" y1="-30.167" x2="-243.750" y2="-58.312"/>
        <line x1="-195.000" y1="-30.167" x2="-195.000" y2="26.125"/>
        <line x1="-195.000" y1="-30.167" x2="-146.250" y2="-58.312"/>
        <line x1="-146.250" y1="-2.021" x2="-146.250" y2="-58.312"/>
        <line x1="-146.250" y1="-2.021" x2="-97.500" y2="26.125"/>
        <line x1="-146.250" y1="-2.021" x2="-195.000" y2="26.125"/>
        <line x1="-97.500" y1="-30.167" x2="-146.250" y2="-58.312"/>
        <line x1="-97.500" y1="-30.167" x2="-97.500" y2="26.125"/>
        <line x1="-97.500" y1="-30.167" x2="-48.750" y2="-58.312"/>
        <line x1="-48.750" y1="-2.021" x2="-48.750" y2="-58.312"/>
        <line x1="-48.750" y1="-2.021" x2="0.000" y2="26.125"/>
        <line x1="-48.750" y1="-2.021" x2="-97.500" y2="26.125"/>
        <line x1="0.000" y1="-30.167" x2="-48.750" y2="-58.312"/>
        <line x1="0.000" y1="-30.167" x2="0.000" y2="26.125"/>
        <line x1="0.000" y1="-30.167" x2="48.750" y2="-58.312"/>
        <line x1="48.750" y1="-2.021" x2="48.750" y2="-58.312"/>
        <line x1="48.750" y1="-2.021" x2="97.500" y2="26.125"/>
        <line x1="48.750" y1="-2.021" x2="0.000" y2="26.125"/>
        <line x1="97.500" y1="-30.167" x2="48.750" y2="-58.312"/>
        <line x1="97.500" y1="-30.167" x2="97.500" y2="26.125"/>
        <line x1="97.500" y1="-30.167" x2="146.250" y2="-58.312"/>
        <line x1="146.250" y1="-2.021" x2="146.250" y2="-58.312"/>
        <line x1="146.250" y1="-2.021" x2="195.000" y2="26.125"/>
        <line x1="146.250" y1="-2.021" x2="97.500" y2="26.125"/>
        <line x1="195.000" y1="-30.167" x2="146.250" y2="-58.312"/>
        <line x1="195.000" y1="-30.167" x2="195.000" y2="26.125"/>
        <line x1="195.000" y1="-30.167" x2="243.750" y2="-58.312"/>
        <line x1="243.750" y1="-2.021" x2="243.750" y2="-58.312"/>
        <line x1="243.750" y1="-2.021" x2="292.500" y2="26.125"/>
        <line x1="243.750" y1="-2.021" x2="195.000" y2="26.125"/>
        <line x1="292.500" y1="-30.167" x2="243.750" y2="-58.312"/>
        <line x1="292.500" y1="-30.167" x2="292.500" y2="26.125"/>
        <line x1="292.500" y1="-30.167" x2="341.250" y2="-58.312"/>
        <line x1="341.250" y1="-2.021" x2="341.250" y2="-58.312"/>
        <line x1="341.250" y1="-2.021" x2="390.000" y2="26.125"/>
        <line x1="341.250" y1="-2.021" x2="292.500" y2="26.125"/>
        <line x1="390.000" y1="-30.167" x2="341.250" y2="-58.312"/>
        <line x1="390.000" y1="-30.167" x2="390.000" y2="26.125"/>
        <line x1="390.000" y1="-30.167" x2="438.750" y2="-58.312"/>
        <line x1="438.750" y1="-2.021" x2="438.750" y2="-58.312"/>
        <line x1="438.750" y1="-2.021" x2="487.500" y2="26.125"/>
        <line x1="438.750" y1="-2.021" x2="390.000" y2="26.125"/>
        <line x1="487.500" y1="-30.167" x2="438.750" y2="-58.312"/>
        <line x1="487.500" y1="-30.167" x2="487.500" y2="26.125"/>
        <line x1="487.500" y1="-30.167" x2="536.250" y2="-58.312"/>
        <line x1="536.250" y1="-2.021" x2="536.250" y2="-58.312"/>
        <line x1="536.250" y1="-2.021" x2="585.000" y2="26.125"/>
        <line x1="536.250" y1="-2.021" x2="487.500" y2="26.125"/>
        <line x1="-341.250" y1="54.271" x2="-390.000" y2="26.125"/>
        <line x1="-341.250" y1="54.271" x2="-341.250" y2="110.563"/>
        <line x1="-341.250" y1="54.271" x2="-292.500" y2="26.125"/>
        <line x1="-292.500" y1="82.417" x2="-292.500" y2="26.125"/>
        <line x1="-292.500" y1="82.417" x2="-243.750" y2="110.563"/>
        <line x1="-292.500" y1="82.417" x2="-341.250" y2="110.563"/>
        <line x1="-243.750" y1="54.271" x2="-292.500" y2="26.125"/>
        <line x1="-243.750" y1="54.271" x2="-243.750" y2="110.563"/>
        <line x1="-243.750" y1="54.271" x2="-195.000" y2="26.125"/>
        <line x1="-195.000" y1="82.417" x2="-195.000" y2="26.125"/>
        <line x1="-195.000" y1="82.417" x2="-146.250" y2="110.563"/>
        <line x1="-195.000" y1="82.417" x2="-243.750" y2="110.563"/>
        <line x1="-146.250" y1="54.271" x2="-195.000" y2="26.125"/>
        <line x1="-146.250" y1="54.271" x2="-146.250" y2="110.563"/>
        <line x1="-146.250" y1="54.271" x2="-97.500" y2="26.125"/>
        <line x1="-97.500" y1="82.417" x2="-97.500" y2="26.125"/>
        <line x1="-97.500" y1="82.417" x2="-48.750" y2="110.563"/>
        <line x1="-97.500" y1="82.417" x2="-146.250" y2="110.563"/>
        <line x1="-48.750" y1="54.271" x2="-97.500" y2="26.125"/>
        <line x1="-48.750" y1="54.271" x2="-48.750" y2="110.563"/>
        <line x1="-48.750" y1="54.271" x2="0.000" y2="26.125"/>
        <line x1="0.000" y1="82.417" x2="0.000" y2="26.125"/>
        <line x1="0.000" y1="82.417" x2="48.750" y2="110.563"/>
        <line x1="0.000" y1="82.417" x2="-48.750" y2="110.563"/>
        <line x1="48.750" y1="54.271" x2="0.000" y2="26.125"/>
        <line x1="48.750" y1="54.271" x2="48.750" y2="110.563"/>
        <line x1="48.750" y1="54.271" x2="97.500" y2="26.125"/>
        <line x1="97.500" y1="82.417" x2="97.500" y2="26.125"/>
        <line x1="97.500" y1="82.417" x2="146.250" y2="110.563"/>
        <line x1="97.500" y1="82.417" x2="48.750" y2="110.563"/>
        <line x1="146.250" y1="54.271" x2="97.500" y2="26.125"/>
        <line x1="146.250" y1="54.271" x2="146.250" y2="110.563"/>
        <line x1="146.250" y1="54.271" x2="195.000" y2="26.125"/>
        <line x1="195.000" y1="82.417" x2="195.000" y2="26.125"/>
        <line x1="195.000" y1="82.417" x2="243.750" y2="110.563"/>
        <line x1="195.000" y1="82.417" x2="146.250" y2="110.563"/>
        <line x1="243.750" y1="54.271" x2="195.000" y2="26.125"/>
        <line x1="243.750" y1="54.271" x2="243.750" y2="110.563"/>
        <line x1="243.750" y1="54.271" x2="292.500" y2="26.125"/>
        <line x1="292.500" y1="82.417" x2="292.500" y2="26.125"/>
        <line x1="292.500" y1="82.417" x2="341.250" y2="110.563"/>
        <line x1="292.500" y1="82.417" x2="243.750" y2="110.563"/>
        <line x1="341.250" y1="54.271" x2="292.500" y2="26.125"/>
        <line x1="341.250" y1="54.271" x2="341.250" y2="110.563"/>
        <line x1="341.250" y1="54.271" x2="390.000" y2="26.125"/>
        <line x1="390.000" y1="82.417" x2="390.000" y2="26.125"/>
        <line x1="390.000" y1="82.417" x2="438.750" y2="110.563"/>
        <line x1="390.000" y1="82.417" x2="341.250" y2="110.563"/>
        <line x1="438.750" y1="54.271" x2="390.000" y2="26.125"/>
        <line x1="438.750" y1="54.271" x2="438.750" y2="110.563"/>
        <line x1="438.750" y1="54.271" x2="487.500" y2="26.125"/>
        <line x1="487.500" y1="82.417" x2="487.500" y2="26.125"/>
        <line x1="487.500" y1="82.417" x2="536.250" y2="110.563"/>
        <line x1="487.500" y1="82.417" x2="438.750" y2="110.563"/>
        <line x1="536.250" y1="54.271" x2="487.500" y2="26.125"/>
        <line x1="536.250" y1="54.271" x2="536.250" y2="110.563"/>
        <line x1="536.250" y1="54.271" x2="585.000" y2="26.125"/>
        <line x1="585.000" y1="82.417" x2="585.000" y2="26.125"/>
        <line x1="585.000" y1="82.417" x2="633.750" y2="110.563"/>
        <line x1="585.000" y1="82.417" x2="536.250" y2="110.563"/>
        <line x1="-292.500" y1="138.708" x2="-341.250" y2="110.563"/>
        <line x1="-292.500" y1="138.708" x2="-292.500" y2="195.000"/>
        <line x1="-292.500" y1="138.708" x2="-243.750" y2="110.563"/>
        <line x1="-243.750" y1="166.854" x2="-243.750" y2="110.563"/>
        <line x1="-243.750" y1="166.854" x2="-195.000" y2="195.000"/>
        <line x1="-243.750" y1="166.854" x2="-292.500" y2="195.000"/>
        <line x1="-195.000" y1="138.708" x2="-243.750" y2="110.563"/>
        <line x1="-195.000" y1="138.708" x2="-195.000" y2="195.000"/>
        <line x1="-195.000" y1="138.708" x2="-146.250" y2="110.563"/>
        <line x1="-146.250" y1="166.854" x2="-146.250" y2="110.563"/>
        <line x1="-146.250" y1="166.854" x2="-97.500" y2="195.000"/>
        <line x1="-146.250" y1="166.854" x2="-195.000" y2="195.000"/>
        <line x1="-97.500" y1="138.708" x2="-146.250" y2="110.563"/>
        <line x1="-97.500" y1="138.708" x2="-97.500" y2="195.000"/>
        <line x1="-97.500" y1="138.708" x2="-48.750" y2="110.563"/>
        <line x1="-48.750" y1="166.854" x2="-48.750" y2="110.563"/>
        <line x1="-48.750" y1="166.854" x2="0.000" y2="195.000"/>
        <line x1="-48.750" y1="166.854" x2="-97.500" y2="195.000"/>
        <line x1="0.000" y1="138.708" x2="-48.750" y2="110.563"/>
        <line x1="0.000" y1="138.708" x2="0.000" y2="195.000"/>
        <line x1="0.000" y1="138.708" x2="48.750" y2="110.563"/>
        <line x1="48.750" y1="166.854" x2="48.750" y2="110.563"/>
        <line x1="48.750" y1="166.854" x2="97.500" y2="195.000"/>
        <line x1="48.750" y1="166.854" x2="0.000" y2="195.000"/>
        <line x1="97.500" y1="138.708" x2="48.750" y2="110.563"/>
        <line x1="97.500" y1="138.708" x2="97.500" y2="195.000"/>
        <line x1="97.500" y1="138.708" x2="146.250" y2="110.563"/>
        <line x1="146.250" y1="166.854" x2="146.250" y2="110.563"/>
        <line x1="146.250" y1="166.854" x2="195.000" y2="195.000"/>
        <line x1="146.250" y1="166.854" x2="97.500" y2="195.000"/>
        <line x1="195.000" y1="138.708" x2="146.250" y2="110.563"/>
        <line x1="195.000" y1="138.708" x2="195.000" y2="195.000"/>
        <line x1="195.000" y1="138.708" x2="243.750" y2="110.563"/>
        <line x1="243.750" y1="166.854" x2="243.750" y2="110.563"/>
        <line x1="243.750" y1="166.854" x2="292.500" y2="195.000"/>
        <line x1="243.750" y1="166.854" x2="195.000" y2="195.000"/>
        <line x1="292.500" y1="138.708" x2="243.750" y2="110.563"/>
        <line x1="292.500" y1="138.708" x2="292.500" y2="195.000"/>
        <line x1="292.500" y1="138.708" x2="341.250" y2="110.563"/>
        <line x1="341.250" y1="166.854" x2="341.250" y2="110.563"/>
        <line x1="341.250" y1="166.854" x2="390.000" y2="195.000"/>
        <line x1="341.250" y1="166.854" x2="292.500" y2="195.000"/>
        <line x1="390.000" y1="138.708" x2="341.250" y2="110.563"/>
        <line x1="390.000" y1="138.708" x2="390.000" y2="195.000"/>
        <line x1="390.000" y1="138.708" x2="438.750" y2="110.563"/>
        <line x1="438.750" y1="166.854" x2="438.750" y2="110.563"/>
        <line x1="438.750" y1="166.854" x2="487.500" y2="195.000"/>
        <line x1="438.750" y1="166.854" x2="390.000" y2="195.000"/>
        <line x1="487.500" y1="138.708" x2="438.750" y2="110.563"/>
        <line x1="487.500" y1="138.708" x2="487.500" y2="195.000"/>
        <line x1="487.500" y1="138.708" x2="536.250" y2="110.563"/>
        <line x1="536.250" y1="166.854" x2="536.250" y2="110.563"/>
        <line x1="536.250" y1="166.854" x2="585.000" y2="195.000"/>
        <line x1="536.250" y1="166.854" x2="487.500" y2="195.000"/>
        <line x1="585.000" y1="138.708" x2="536.250" y2="110.563"/>
        <line x1="585.000" y1="138.708" x2="585.000" y2="195.000"/>
        <line x1="585.000" y1="138.708" x2="633.750" y2="110.563"/>
        <line x1="633.750" y1="166.854" x2="633.750" y2="110.563"/>
        <line x1="633.750" y1="166.854" x2="682.500" y2="195.000"/>
        <line x1="633.750" y1="166.854" x2="585.000" y2="195.000"/>
        <line x1="-243.750" y1="223.146" x2="-292.500" y2="195.000"/>
        <line x1="-243.750" y1="223.146" x2="-243.750" y2="279.437"/>
        <line x1="-243.750" y1="223.146" x2="-195.000" y2="195.000"/>
        <line x1="-195.000" y1="251.292" x2="-195.000" y2="195.000"/>
        <line x1="-195.000" y1="251.292" x2="-146.250" y2="279.437"/>
        <line x1="-195.000" y1="251.292" x2="-243.750" y2="279.437"/>
        <line x1="-146.250" y1="223.146" x2="-195.000" y2="195.000"/>
        <line x1="-146.250" y1="223.146" x2="-146.250" y2="279.437"/>
        <line x1="-146.250" y1="223.146" x2="-97.500" y2="195.000"/>
        <line x1="-97.500" y1="251.292" x2="-97.500" y2="195.000"/>
        <line x1="-97.500" y1="251.292" x2="-48.750" y2="279.437"/>
        <line x1="-97.500" y1="251.292" x2="-146.250" y2="279.437"/>
        <line x1="-48.750" y1="223.146" x2="-97.500" y2="195.000"/>
        <line x1="-48.750" y1="223.146" x2="-48.750" y2="279.437"/>
        <line x1="-48.750" y1="223.146" x2="0.000" y2="195.000"/>
        <line x1="0.000" y1="251.292" x2="0.000" y2="195.000"/>
        <line x1="0.000" y1="251.292" x2="48.750" y2="279.437"/>
        <line x1="0.000" y1="251.292" x2="-48.750" y2="279.437"/>
        <line x1="48.750" y1="223.146" x2="0.000" y2="195.000"/>
        <line x1="48.750" y1="223.146" x2="48.750" y2="279.437"/>
        <line x1="48.750" y1="223.146" x2="97.500" y2="195.000"/>
        <line x1="97.500" y1="251.292" x2="97.500" y2="195.000"/>
        <line x1="97.500" y1="251.292" x2="146.250" y2="279.437"/>
        <line x1="97.500" y1="251.292" x2="48.750" y2="279.437"/>
        <line x1="146.250" y1="223.146" x2="97.500" y2="195.000"/>
        <line x1="146.250" y1="223.146" x2="146.250" y2="279.437"/>
        <line x1="146.250" y1="223.146" x2="195.000" y2="195.000"/>
        <line x1="195.000" y1="251.292" x2="195.000" y2="195.000"/>
        <line x1="195.000" y1="251.292" x2="243.750" y2="279.437"/>
        <line x1="195.000" y1="251.292" x2="146.250" y2="279.437"/>
        <line x1="243.750" y1="223.146" x2="195.000" y2="195.000"/>
        <line x1="243.750" y1="223.146" x2="243.750" y2="279.437"/>
        <line x1="243.750" y1="223.146" x2="292.500" y2="195.000"/>
        <line x1="292.500" y1="251.292" x2="292.500" y2="195.000"/>
        <line x1="292.500" y1="251.292" x2="341.250" y2="279.437"/>
        <line x1="292.500" y1="251.292" x2="243.750" y2="279.437"/>
        <line x1="341.250" y1="223.146" x2="292.500" y2="195.000"/>
        <line x1="341.250" y1="223.146" x2="341.250" y2="279.437"/>
        <line x1="341.250" y1="223.146" x2="390.000" y2="195.000"/>
        <line x1="390.000" y1="251.292" x2="390.000" y2="195.000"/>
        <line x1="390.000" y1="251.292" x2="438.750" y2="279.437"/>
        <line x1="390.000" y1="251.292" x2="341.250" y2="279.437"/>
        <line x1="438.750" y1="223.146" x2="390.000" y2="195.000"/>
        <line x1="438.750" y1="223.146" x2="438.750" y2="279.437"/>
        <line x1="438.750" y1="223.146" x2="487.500" y2="195.000"/>
        <line x1="487.500" y1="251.292" x2="487.500" y2="195.000"/>
        <line x1="487.500" y1="251.292" x2="536.250" y2="279.437"/>
        <line x1="487.500" y1="251.292" x2="438.750" y2="279.437"/>
        <line x1="536.250" y1="223.146" x2="487.500" y2="195.000"/>
        <line x1="536.250" y1="223.146" x2="536.250" y2="279.437"/>
        <line x1="536.250" y1="223.146" x2="585.000" y2="195.000"/>
        <line x1="585.000" y1="251.292" x2="585.000" y2="195.000"/>
        <line x1="585.000" y1="251.292" x2="633.750" y2="279.437"/>
        <line x1="585.000" y1="251.292" x2="536.250" y2="279.437"/>
        <line x1="633.750" y1="223.146" x2="585.000" y2="195.000"/>
        <line x1="633.750" y1="223.146" x2="633.750" y2="279.437"/>
        <line x1="633.750" y1="223.146" x2="682.500" y2="195.000"/>
        <line x1="682.500" y1="251.292" x2="682.500" y2="195.000"/>
        <line x1="682.500" y1="251.292" x2="731.250" y2="279.437"/>
        <line x1="682.500" y1="251.292" x2="633.750" y2="279.437"/>
        <line x1="-195.000" y1="307.583" x2="-243.750" y2="279.437"/>
        <line x1="-195.000" y1="307.583" x2="-195.000" y2="363.875"/>
        <line x1="-195.000" y1="307.583" x2="-146.250" y2="279.437"/>
        <line x1="-146.250" y1="335.729" x2="-146.250" y2="279.437"/>
        <line x1="-146.250" y1="335.729" x2="-97.500" y2="363.875"/>
        <line x1="-146.250" y1="335.729" x2="-195.000" y2="363.875"/>
        <line x1="-97.500" y1="307.583" x2="-146.250" y2="279.437"/>
        <line x1="-97.500" y1="307.583" x2="-97.500" y2="363.875"/>
        <line x1="-97.500" y1="307.583" x2="-48.750" y2="279.437"/>
        <line x1="-48.750" y1="335.729" x2="-48.750" y2="279.437"/>
        <line x1="-48.750" y1="335.729" x2="0.000" y2="363.875"/>
        <line x1="-48.750" y1="335.729" x2="-97.500" y2="363.875"/>
        <line x1="0.000" y1="307.583" x2="-48.750" y2="279.437"/>
        <line x1="0.000" y1="307.583" x2="0.000" y2="363.875"/>
        <line x1="0.000" y1="307.583" x2="48.750" y2="279.437"/>
        <line x1="48.750" y1="335.729" x2="48.750" y2="279.437"/>
        <line x1="48.750" y1="335.729" x2="97.500" y2="363.875"/>
        <line x1="48.750" y1="335.729" x2="0.000" y2="363.875"/>
        <line x1="97.500" y1="307.583" x2="48.750" y2="279.437"/>
        <line x1="97.500" y1="307.583" x2="97.500" y2="363.875"/>
        <line x1="97.500" y1="307.583" x2="146.250" y2="279.437"/>
        <line x1="146.250" y1="335.729" x2="146.250" y2="279.437"/>
        <line x1="146.250" y1="335.729" x2="195.000" y2="363.875"/>
        <line x1="146.250" y1="335.729" x2="97.500" y2="363.875"/>
        <line x1="195.000" y1="307.583" x2="146.250" y2="279.437"/>
        <line x1="195.000" y1="307.583" x2="195.000" y2="363.875"/>
        <line x1="195.000" y1="307.583" x2="243.750" y2="279.437"/>
        <line x1="243.750" y1="335.729" x2="243.750" y2="279.437"/>
        <line x1="243.750" y1="335.729" x2="292.500" y2="363.875"/>
        <line x1="243.750" y1="335.729" x2="195.000" y2="363.875"/>
        <line x1="292.500" y1="307.583" x2="243.750" y2="279.437"/>
        <line x1="292.500" y1="307.583" x2="292.500" y2="363.875"/>
        <line x1="292.500" y1="307.583" x2="341.250" y2="279.437"/>
        <line x1="341.250" y1="335.729" x2="341.250" y2="279.437"/>
        <line x1="341.250" y1="335.729" x2="390.000" y2="363.875"/>
        <line x1="341.250" y1="335.729" x2="292.500" y2="363.875"/>
        <line x1="390.000" y1="307.583" x2="341.250" y2="279.437"/>
        <line x1="390.000" y1="307.583" x2="390.000" y2="363.875"/>
        <line x1="390.000" y1="307.583" x2="438.750" y2="279.437"/>
        <line x1="438.750" y1="335.729" x2="438.750" y2="279.437"/>
        <line x1="438.750" y1="335.729" x2="487.500" y2="363.875"/>
        <line x1="438.750" y1="335.729" x2="390.000" y2="363.875"/>
        <line x1="487.500" y1="307.583" x2="438.750" y2="279.437"/>
        <line x1="487.500" y1="307.583" x2="487.500" y2="363.875"/>
        <line x1="487.500" y1="307.583" x2="536.250" y2="279.437"/>
        <line x1="536.250" y1="335.729" x2="536.250" y2="279.437"/>
        <line x1="536.250" y1="335.729" x2="585.000" y2="363.875"/>
        <line x1="536.250" y1="335.729" x2="487.500" y2="363.875"/>
        <line x1="585.000" y1="307.583" x2="536.250" y2="279.437"/>
        <line x1="585.000" y1="307.583" x2="585.000" y2="363.875"/>
        <line x1="585.000" y1="307.583" x2="633.750" y2="279.437"/>
        <line x1="633.750" y1="335.729" x2="633.750" y2="279.437"/>
        <line x1="633.750" y1="335.729" x2="682.500" y2="363.875"/>
        <line x1="633.750" y1="335.729" x2="585.000" y2="363.875"/>
        <line x1="682.500" y1="307.583" x2="633.750" y2="279.437"/>
        <line x1="682.500" y1="307.583" x2="682.500" y2="363.875"/>
        <line x1="682.500" y1="307.583" x2="731.250" y2="279.437"/>
        <line x1="731.250" y1="335.729" x2="731.250" y2="279.437"/>
        <line x1="731.250" y1="335.729" x2="780.000" y2="363.875"/>
        <line x1="731.250" y1="335.729" x2="682.500" y2="363.875"/>
        <line x1="-146.250" y1="392.021" x2="-195.000" y2="363.875"/>
        <line x1="-146.250" y1="392.021" x2="-146.250" y2="448.312"/>
        <line x1="-146.250" y1="392.021" x2="-97.500" y2="363.875"/>
        <line x1="-97.500" y1="420.167" x2="-97.500" y2="363.875"/>
        <line x1="-97.500" y1="420.167" x2="-48.750" y2="448.312"/>
        <line x1="-97.500" y1="420.167" x2="-146.250" y2="448.312"/>
        <line x1="-48.750" y1="392.021" x2="-97.500" y2="363.875"/>
        <line x1="-48.750" y1="392.021" x2="-48.750" y2="448.312"/>
        <line x1="-48.750" y1="392.021" x2="0.000" y2="363.875"/>
        <line x1="0.000" y1="420.167" x2="0.000" y2="363.875"/>
        <line x1="0.000" y1="420.167" x2="48.750" y2="448.312"/>
        <line x1="0.000" y1="420.167" x2="-48.750" y2="448.312"/>
        <line x1="48.750" y1="392.021" x2="0.000" y2="363.875"/>
        <line x1="48.750" y1="392.021" x2="48.750" y2="448.312"/>
        <line x1="48.750" y1="392.021" x2="97.500" y2="363.875"/>
        <line x1="97.500" y1="420.167" x2="97.500" y2="363.875"/>
        <line x1="97.500" y1="420.167" x2="146.250" y2="448.312"/>
        <line x1="97.500" y1="420.167" x2="48.750" y2="448.312"/>
        <line x1="146.250" y1="392.021" x2="97.500" y2="363.875"/>
        <line x1="146.250" y1="392.021" x2="146.250" y2="448.312"/>
        <line x1="146.250" y1="392.021" x2="195.000" y2="363.875"/>
        <line x1="195.000" y1="420.167" x2="195.000" y2="363.875"/>
        <line x1="195.000" y1="420.167" x2="243.750" y2="448.312"/>
        <line x1="195.000" y1="420.167" x2="146.250" y2="448.312"/>
        <line x1="243.750" y1="392.021" x2="195.000" y2="363.875"/>
        <line x1="243.750" y1="392.021" x2="243.750" y2="448.312"/>
        <line x1="243.750" y1="392.021" x2="292.500" y2="363.875"/>
        <line x1="292.500" y1="420.167" x2="292.500" y2="363.875"/>
        <line x1="292.500" y1="420.167" x2="341.250" y2="448.312"/>
        <line x1="292.500" y1="420.167" x2="243.750" y2="448.312"/>
        <line x1="341.250" y1="392.021" x2="292.500" y2="363.875"/>
        <line x1="341.250" y1="392.021" x2="341.250" y2="448.312"/>
        <line x1="341.250" y1="392.021" x2="390.000" y2="363.875"/>
        <line x1="390.000" y1="420.167" x2="390.000" y2="363.875"/>
        <line x1="390.000" y1="420.167" x2="438.750" y2="448.312"/>
        <line x1="390.000" y1="420.167" x2="341.250" y2="448.312"/>
        <line x1="438.750" y1="392.021" x2="390.000" y2="363.875"/>
        <line x1="438.750" y1="392.021" x2="438.750" y2="448.312"/>
        <line x1="438.750" y1="392.021" x2="487.500" y2="363.875"/>
        <line x1="487.500" y1="420.167" x2="487.500" y2="363.875"/>
        <line x1="487.500" y1="420.167" x2="536.250" y2="448.312"/>
        <line x1="487.500" y1="420.167" x2="438.750" y2="448.312"/>
        <line x1="536.250" y1="392.021" x2="487.500" y2="363.875"/>
        <line x1="536.250" y1="392.021" x2="536.250" y2="448.312"/>
        <line x1="536.250" y1="392.021" x2="585.000" y2="363.875"/>
        <line x1="585.000" y1="420.167" x2="585.000" y2="363.875"/>
        <line x1="585.000" y1="420.167" x2="633.750" y2="448.312"/>
        <line x1="585.000" y1="420.167" x2="536.250" y2="448.312"/>
        <line x1="633.750" y1="392.021" x2="585.000" y2="363.875"/>
        <line x1="633.750" y1="392.021" x2="633.750" y2="448.312"/>
        <line x1="633.750" y1="392.021" x2="682.500" y2="363.875"/>
        <line x1="682.500" y1="420.167" x2="682.500" y2="363.875"/>
        <line x1="682.500" y1="420.167" x2="731.250" y2="448.312"/>
        <line x1="682.500" y1="420.167" x2="633.750" y2="448.312"/>
        <line x1="731.250" y1="392.021" x2="682.500" y2="363.875"/>
        <line x1="731.250" y1="392.021" x2="731.250" y2="448.312"/>
        <line x1="731.250" y1="392.021" x2="780.000" y2="363.875"/>
        <line x1="780.000" y1="420.167" x2="780.000" y2="363.875"/>
        <line x1="780.000" y1="420.167" x2="828.750" y2="448.312"/>
        <line x1="780.000" y1="420.167" x2="731.250" y2="448.312"/>
        <line x1="-97.500" y1="476.458" x2="-146.250" y2="448.312"/>
        <line x1="-97.500" y1="476.458" x2="-97.500" y2="532.750"/>
        <line x1="-97.500" y1="476.458" x2="-48.750" y2="448.312"/>
        <line x1="-48.750" y1="504.604" x2="-48.750" y2="448.312"/>
        <line x1="-48.750" y1="504.604" x2="0.000" y2="532.750"/>
        <line x1="-48.750" y1="504.604" x2="-97.500" y2="532.750"/>
        <line x1="0.000" y1="476.458" x2="-48.750" y2="448.312"/>
        <line x1="0.000" y1="476.458" x2="0.000" y2="532.750"/>
        <line x1="0.000" y1="476.458" x2="48.750" y2="448.312"/>
        <line x1="48.750" y1="504.604" x2="48.750" y2="448.312"/>
        <line x1="48.750" y1="504.604" x2="97.500" y2="532.750"/>
        <line x1="48.750" y1="504.604" x2="0.000" y2="532.750"/>
        <line x1="97.500" y1="476.458" x2="48.750" y2="448.312"/>
        <line x1="97.500" y1="476.458" x2="97.500" y2="532.750"/>
        <line x1="97.500" y1="476.458" x2="146.250" y2="448.312"/>
        <line x1="146.250" y1="504.604" x2="146.250" y2="448.312"/>
        <line x1="146.250" y1="504.604" x2="195.000" y2="532.750"/>
        <line x1="146.250" y1="504.604" x2="97.500" y2="532.750"/>
        <line x1="195.000" y1="476.458" x2="146.250" y2="448.312"/>
        <line x1="195.000" y1="476.458" x2="195.000" y2="532.750"/>
        <line x1="195.000" y1="476.458" x2="243.750" y2="448.312"/>
        <line x1="243.750" y1="504.604" x2="243.750" y2="448.312"/>
        <line x1="243.750" y1="504.604" x2="292.500" y2="532.750"/>
        <line x1="243.750" y1="504.604" x2="195.000" y2="532.750"/>
        <line x1="292.500" y1="476.458" x2="243.750" y2="448.312"/>
        <line x1="292.500" y1="476.458" x2="292.500" y2="532.750"/>
        <line x1="292.500" y1="476.458" x2="341.250" y2="448.312"/>
        <line x1="341.250" y1="504.604" x2="341.250" y2="448.312"/>
        <line x1="341.250" y1="504.604" x2="390.000" y2="532.750"/>
        <line x1="341.250" y1="504.604" x2="292.500" y2="532.750"/>
        <line x1="390.000" y1="476.458" x2="341.250" y2="448.312"/>
        <line x1="390.000" y1="476.458" x2="390.000" y2="532.750"/>
        <line x1="390.000" y1="476.458" x2="438.750" y2="448.312"/>
        <line x1="438.750" y1="504.604" x2="438.750" y2="448.312"/>
        <line x1="438.750" y1="504.604" x2="487.500" y2="532.750"/>
        <line x1="438.750" y1="504.604" x2="390.000" y2="532.750"/>
        <line x1="487.500" y1="476.458" x2="438.750" y2="448.312"/>
        <line x1="487.500" y1="476.458" x2="487.500" y2="532.750"/>
        <line x1="487.500" y1="476.458" x2="536.250" y2="448.312"/>
        <line x1="536.250" y1="504.604" x2="536.250" y2="448.312"/>
        <line x1="536.250" y1="504.604" x2="585.000" y2="532.750"/>
        <line x1="536.250" y1="504.604" x2="487.500" y2="532.750"/>
        <line x1="585.000" y1="476.458" x2="536.250" y2="448.312"/>
        <line x1="585.000" y1="476.458" x2="585.000" y2="532.750"/>
        <line x1="585.000" y1="476.458" x2="633.750" y2="448.312"/>
        <line x1="633.750" y1="504.604" x2="633.750" y2="448.312"/>
        <line x1="633.750" y1="504.604" x2="682.500" y2="532.750"/>
        <line x1="633.750" y1="504.604" x2="585.000" y2="532.750"/>
        <line x1="682.500" y1="476.458" x2="633.750" y2="448.312"/>
        <line x1="682.500" y1="476.458" x2="682.500" y2="532.750"/>
        <line x1="682.500" y1="476.458" x2="731.250" y2="448.312"/>
        <line x1="731.250" y1="504.604" x2="731.250" y2="448.312"/>
        <line x1="731.250" y1="504.604" x2="780.000" y2="532.750"/>
        <line x1="731.250" y1="504.604" x2="682.500" y2="532.750"/>
        <line x1="780.000" y1="476.458" x2="731.250" y2="448.312"/>
        <line x1="780.000" y1="476.458" x2="780.000" y2="532.750"/>
        <line x1="780.000" y1="476.458" x2="828.750" y2="448.312"/>
        <line x1="828.750" y1="504.604" x2="828.750" y2="448.312"/>
        <line x1="828.750" y1="504.604" x2="877.500" y2="532.750"/>
        <line x1="828.750" y1="504.604" x2="780.000" y2="532.750"/>
        <line x1="-48.750" y1="560.896" x2="-97.500" y2="532.750"/>
        <line x1="-48.750" y1="560.896" x2="-48.750" y2="617.187"/>
        <line x1="-48.750" y1="560.896" x2="0.000" y2="532.750"/>
        <line x1="0.000" y1="589.042" x2="0.000" y2="532.750"/>
        <line x1="0.000" y1="589.042" x2="48.750" y2="617.187"/>
        <line x1="0.000" y1="589.042" x2="-48.750" y2="617.187"/>
        <line x1="48.750" y1="560.896" x2="0.000" y2="532.750"/>
        <line x1="48.750" y1="560.896" x2="48.750" y2="617.187"/>
        <line x1="48.750" y1="560.896" x2="97.500" y2="532.750"/>
        <line x1="97.500" y1="589.042" x2="97.500" y2="532.750"/>
        <line x1="97.500" y1="589.042" x2="146.250" y2="617.187"/>
        <line x1="97.500" y1="589.042" x2="48.750" y2="617.187"/>
        <line x1="146.250" y1="560.896" x2="97.500" y2="532.750"/>
        <line x1="146.250" y1="560.896" x2="146.250" y2="617.187"/>
        <line x1="146.250" y1="560.896" x2="195.000" y2="532.750"/>
        <line x1="195.000" y1="589.042" x2="195.000" y2="532.750"/>
        <line x1="195.000" y1="589.042" x2="243.750" y2="617.187"/>
        <line x1="195.000" y1="589.042" x2="146.250" y2="617.187"/>
        <line x1="243.750" y1="560.896" x2="195.000" y2="532.750"/>
        <line x1="243.750" y1="560.896" x2="243.750" y2="617.187"/>
        <line x1="243.750" y1="560.896" x2="292.500" y2="532.750"/>
        <line x1="292.500" y1="589.042" x2="292.500" y2="532.750"/>
        <line x1="292.500" y1="589.042" x2="341.250" y2="617.187"/>
        <line x1="292.500" y1="589.042" x2="243.750" y2="617.187"/>
        <line x1="341.250" y1="560.896" x2="292.500" y2="532.750"/>
        <line x1="341.250" y1="560.896" x2="341.250" y2="617.187"/>
        <line x1="341.250" y1="560.896" x2="390.000" y2="532.750"/>
        <line x1="390.000" y1="589.042" x2="390.000" y2="532.750"/>
        <line x1="390.000" y1="589.042" x2="438.750" y2="617.187"/>
        <line x1="390.000" y1="589.042" x2="341.250" y2="617.187"/>
        <line x1="438.750" y1="560.896" x2="390.000" y2="532.750"/>
        <line x1="438.750" y1="560.896" x2="438.750" y2="617.187"/>
        <line x1="438.750" y1="560.896" x2="487.500" y2="532.750"/>
        <line x1="487.500" y1="589.042" x2="487.500" y2="532.750"/>
        <line x1="487.500" y1="589.042" x2="536.250" y2="617.187"/>
        <line x1="487.500" y1="589.042" x2="438.750" y2="617.187"/>
        <line x1="536.250" y1="560.896" x2="487.500" y2="532.750"/>
        <line x1="536.250" y1="560.896" x2="536.250" y2="617.187"/>
        <line x1="536.250" y1="560.896" x2="585.000" y2="532.750"/>
        <line x1="585.000" y1="589.042" x2="585.000" y2="532.750"/>
        <line x1="585.000" y1="589.042" x2="633.750" y2="617.187"/>
        <line x1="585.000" y1="589.042" x2="536.250" y2="617.187"/>
        <line x1="633.750" y1="560.896" x2="585.000" y2="532.750"/>
        <line x1="633.750" y1="560.896" x2="633.750" y2="617.187"/>
        <line x1="633.750" y1="560.896" x2="682.500" y2="532.750"/>
        <line x1="682.500" y1="589.042" x2="682.500" y2="532.750"/>
        <line x1="682.500" y1="589.042" x2="731.250" y2="617.187"/>
        <line x1="682.500" y1="589.042" x2="633.750" y2="617.187"/>
        <line x1="731.250" y1="560.896" x2="682.500" y2="532.750"/>
        <line x1="731.250" y1="560.896" x2="731.250" y2="617.187"/>
        <line x1="731.250" y1="560.896" x2="780.000" y2="532.750"/>
        <line x1="780.000" y1="589.042" x2="780.000" y2="532.750"/>
        <line x1="780.000" y1="589.042" x2="828.750" y2="617.187"/>
        <line x1="780.000" y1="589.042" x2="731.250" y2="617.187"/>
        <line x1="828.750" y1="560.896" x2="780.000" y2="532.750"/>
        <line x1="828.750" y1="560.896" x2="828.750" y2="617.187"/>
        <line x1="828.750" y1="560.896" x2="877.500" y2="532.750"/>
        <line x1="877.500" y1="589.042" x2="877.500" y2="532.750"/>
        <line x1="877.500" y1="589.042" x2="926.250" y2="617.187"/>
        <line x1="877.500" y1="589.042" x2="828.750" y2="617.187"/>
    </g>
    <g stroke="#b2392c" stroke-width="2.4">
        <line x1="146.250" y1="110.563" x2="195.000" y2="195.000"/>
        <line x1="195.000" y1="195.000" x2="243.750" y2="279.437"/>
        <line x1="195.000" y1="195.000" x2="292.500" y2="195.000"/>
        <line x1="97.500" y1="195.000" x2="195.000" y2="195.000"/>
        <line x1="195.000" y1="195.000" x2="243.750" y2="110.563"/>
        <line x1="146.250" y1="279.437" x2="195.000" y2="195.000"/>
        <line x1="146.250" y1="166.854" x2="195.000" y2="195.000"/>
        <line x1="195.000" y1="138.708" x2="195.000" y2="195.000"/>
        <line x1="243.750" y1="166.854" x2="195.000" y2="195.000"/>
        <line x1="146.250" y1="223.146" x2="195.000" y2="195.000"/>
        <line x1="195.000" y1="251.292" x2="195.000" y2="195.000"/>
        <line x1="243.750" y1="223.146" x2="195.000" y2="195.000"/>
    </g>
    <polygon points="195.00,195.00 243.75,166.85 292.50,195.00 243.75,223.15" fill="#b2392c" fill-opacity="0.14" stroke="#b2392c" stroke-width="2.4"/>
  </g>

  <g fill="#b2392c" stroke="none" opacity="0.9">
      <circle cx="48.75" cy="110.56" r="3"/>
      <circle cx="48.75" cy="279.44" r="3"/>
      <circle cx="97.50" cy="26.12" r="3"/>
      <circle cx="97.50" cy="195.00" r="3"/>
      <circle cx="97.50" cy="363.88" r="3"/>
      <circle cx="146.25" cy="110.56" r="3"/>
      <circle cx="146.25" cy="279.44" r="3"/>
      <circle cx="195.00" cy="26.12" r="3"/>
      <circle cx="195.00" cy="195.00" r="3"/>
      <circle cx="195.00" cy="363.88" r="3"/>
      <circle cx="243.75" cy="110.56" r="3"/>
      <circle cx="243.75" cy="279.44" r="3"/>
      <circle cx="292.50" cy="26.12" r="3"/>
      <circle cx="292.50" cy="195.00" r="3"/>
      <circle cx="292.50" cy="363.88" r="3"/>
      <circle cx="341.25" cy="110.56" r="3"/>
      <circle cx="341.25" cy="279.44" r="3"/>
  </g>

  <!-- ブロック外形・周枠内縁 -->
  <rect x="0" y="0" width="390" height="390" fill="none" stroke="#1b1a17" stroke-width="1.6"/>
  <rect x="20" y="20" width="350" height="350" fill="none" stroke="#1b1a17" stroke-width="0.8" stroke-dasharray="4,4"/>

  <!-- ===== 寸法 ===== -->
  <g fill="none" stroke="#1b1a17" stroke-width="0.6">
    <g stroke="#cbc7bc">
      <line x1="0" y1="390" x2="0" y2="450"/>
      <line x1="390" y1="390" x2="390" y2="450"/>
      <line x1="0" y1="0" x2="-60" y2="0"/>
      <line x1="0" y1="390" x2="-60" y2="390"/>
      <line x1="97.5" y1="26.13" x2="97.5" y2="-46"/>
      <line x1="195" y1="26.13" x2="195" y2="-46"/>
      <line x1="370" y1="110.56" x2="456" y2="110.56"/>
      <line x1="370" y1="195" x2="456" y2="195"/>
      <line x1="0" y1="0" x2="0" y2="-90"/>
      <line x1="20" y1="0" x2="20" y2="-90"/>
    </g>
    <line x1="0" y1="442" x2="390" y2="442" marker-start="url(#ari)" marker-end="url(#ar)"/>
    <line x1="-52" y1="0" x2="-52" y2="390" marker-start="url(#ari)" marker-end="url(#ar)"/>
    <line x1="97.5" y1="-38" x2="195" y2="-38" marker-start="url(#ari)" marker-end="url(#ar)"/>
    <line x1="448" y1="110.56" x2="448" y2="195" marker-start="url(#ari)" marker-end="url(#ar)"/>
    <line x1="0" y1="-82" x2="20" y2="-82" marker-start="url(#ari)" marker-end="url(#ar)"/>
  </g>

  <g font-size="13" fill="#1b1a17">
    <text x="195" y="466" text-anchor="middle">390</text>
    <text x="-66" y="195" text-anchor="middle" transform="rotate(-90 -66 195)">390</text>
    <text x="146" y="-42" text-anchor="middle" font-size="11">97.5</text>
    <text x="466" y="156" text-anchor="middle" font-size="11" transform="rotate(-90 466 156)">84.44</text>
  </g>
  <g font-size="10.5" fill="#b2392c" font-weight="600">
    <text x="26" y="-78">周枠 20</text>
  </g>

  <!-- ===== 注記・表題 ===== -->
  <g font-size="10.5" fill="#6f6c63">
    <text x="-54" y="500">構成 : 正三角格子（60°・歪0）＋各三角形の重心スポーク。格子頂点＝星中心に 6 枚の葉が連続（組子の麻の葉）。</text>
    <text x="-54" y="518">列ピッチ L=97.5 / 行ピッチ h=84.44。代表の葉 = 60°菱形 97.5 × 56.3。格子は中央星対称配置。1 unit = 1mm。</text>
    <text x="-54" y="536">周枠 20 で 4 辺をクリーンに納める（半端な葉は枠に収束）｜ 全壁厚 t=12（格子）｜ 接合壁厚 20+20=40｜ 開口率 ≈ 23%（実測）。</text>
  </g>
  <g font-weight="600">
    <text x="-54" y="-48" font-size="14" fill="#1b1a17">組子（麻の葉） 基本設計図</text>
    <text x="504" y="-48" font-size="10" fill="#b2392c" text-anchor="end">KUMIKO · BASE</text>
  </g>
</svg>
